/* XPM */
static char *_0eb36116d1d47d18d12a57fbd3f7993tof6IuIJOMATyBJF[] = {
/* columns rows colors chars-per-pixel */
"64 64 143 2 ",
"   c #386532",
".  c #3A6934",
"X  c #3D6937",
"o  c #3C6C36",
"O  c #3F6A39",
"+  c #3E7138",
"@  c #406B2B",
"#  c #416D2B",
"$  c #436D2E",
"%  c #43702D",
"&  c #44732E",
"*  c #47772F",
"=  c #456F31",
"-  c #497A31",
";  c #4B7E32",
":  c #42773B",
">  c #4B7238",
",  c #4C7339",
"<  c #4E763A",
"1  c #43793C",
"2  c #466F41",
"3  c #4A7345",
"4  c #4D7747",
"5  c #BD534F",
"6  c #977A4E",
"7  c #907F4F",
"8  c #947C4E",
"9  c #9A794E",
"0  c #9D794F",
"q  c #907E50",
"w  c #AE6F4F",
"e  c #B76A4F",
"r  c #B86A4F",
"t  c #A2754F",
"y  c #A4754F",
"u  c #AD704F",
"i  c #B66B50",
"p  c #BD6850",
"a  c #C64343",
"s  c #DE534F",
"d  c #DB574C",
"f  c #DE564F",
"g  c #D75A4F",
"h  c #D35C4F",
"j  c #DB594E",
"k  c #C45C5C",
"l  c #DD5750",
"z  c #D15D50",
"x  c #D95950",
"c  c #E54D4D",
"v  c #EB4E4E",
"b  c #E1504E",
"n  c #E35350",
"m  c #E75150",
"M  c #EA5050",
"N  c #C5634F",
"B  c #C0664F",
"V  c #C5644F",
"C  c #CA6050",
"Z  c #CC6050",
"A  c #DA675C",
"S  c #DA786D",
"D  c #4C8033",
"F  c #558E38",
"G  c #57923A",
"H  c #59953B",
"J  c #5F9F3F",
"K  c #4A8542",
"L  c #4B8844",
"P  c #4C8A45",
"I  c #4E8C46",
"U  c #53964B",
"Y  c #54974B",
"T  c #55994C",
"R  c #579D4E",
"E  c #5B9A4E",
"W  c #5F984E",
"Q  c #589C4E",
"!  c #5F9F58",
"~  c #718F4E",
"^  c #778D4E",
"/  c #7A8A4E",
"(  c #788C4F",
")  c #61974D",
"_  c #65964E",
"`  c #6A934F",
"'  c #6E914E",
"]  c #659B4A",
"[  c #61984E",
"{  c #729D44",
"}  c #70904E",
"|  c #609959",
" . c #5CA054",
".. c #61A341",
"X. c #63A642",
"o. c #67A847",
"O. c #6CA74E",
"+. c #69A949",
"@. c #6CA84F",
"#. c #71A047",
"$. c #61A059",
"%. c #62A35C",
"&. c #67A55F",
"*. c #71A950",
"=. c #71AC53",
"-. c #72AD54",
";. c #74AF56",
":. c #69A761",
">. c #84864E",
",. c #8E804F",
"<. c #888856",
"1. c #839779",
"2. c #B19E96",
"3. c #92A790",
"4. c #B9A9A5",
"5. c #AEB2AB",
"6. c #B0B6AC",
"7. c #B1B8AD",
"8. c #B0B8B0",
"9. c #E08F8F",
"0. c #E69292",
"q. c #E09B9B",
"w. c #E69F9F",
"e. c #D5BBB0",
"r. c #B6D5A7",
"t. c #B1D1AC",
"y. c #B9C1B6",
"u. c #C2C9C1",
"i. c #D5CEC3",
"p. c #CFD4CF",
"a. c #D3DACF",
"s. c #D1D7D0",
"d. c #D2D9D1",
"f. c #D3DCD1",
"g. c gainsboro",
"h. c #DFE0E0",
"j. c #E1E1E1",
"k. c #E1E4E4",
"l. c #E4E5E5",
"z. c #E3EBE0",
"x. c #E7F1E2",
"c. c #E5F0E4",
"v. c #FBFBFB",
/* pixels */
"X.X.X.X.X.X.X.X.X.X.X.X.X.X.X.X.X.X.X.X.X.X.X.X.X.X.X.X.X.X.o.;.:. .R R R R R R R R R R R R R R R R R R R R R R R R R R R R R R ",
"X.X.X.X.X.X.X.X.X.X.X.X.X.X.X.X.X.X.X.X.X.X.X.X.X.X.X.X.X.+.r.x.c.t. .R R R R R R R R R R R R R R R R R R R R R R R R R R R R R ",
"X.X.X.X.X.X.X.X.X.X.X.X.X.X.X.X.X.X.X.X.X.X.X.X.X.X.X.X.X.-.z.v.v.d.%.R R R R R R R R R R R R R R R R R R R R R R R R R R R R R ",
"X.X.X.X.X.X.X.X.X.X.X.X.X.X.X.X.X.X.X.X.X.X.X.X.X.X.X.X.X.*.i.l.h.4.<.) R R R R R R R R R R R R R R R R R R R R R R R R R R R R ",
"X.X.X.X.X.X.X.X.X.X.X.X.X.X.X.X.X.X.X.X.X.X.X.X.X.X.X.X.X.{ S 0.9.k s V 7 _ R R R R R R R R R R R R R R R R R R R R R R R R R R ",
"X.X.X.X.X.X.X.X.X.X.X.X.X.X.X.X.X.X.X.X.X.X.X.X.X.X.X.X.X.{ d v c a c M m Z 9 ' Q R R R R R R R R R R R R R R R R R R R R R R R ",
"X.X.X.X.X.X.X.X.X.X.X.X.X.X.X.X.X.X.X.X.X.X.X.X.X.X.X.X.X.{ j M c a c M M M M h y ~ Q R R R R R R R R R R R R R R R R R R R R R ",
"X.X.X.X.X.X.X.X.X.X.X.X.X.X.X.X.X.X.X.X.X.X.X.X.X.X.X.X.X.{ j M c a c M M M M M M x w / W R R R R R R R R R R R R R R R R R R R ",
"X.X.X.X.X.X.X.X.X.X.X.X.X.X.X.X.X.X.X.X.X.X.X.X.X.X.X.X.X.{ j M c a c M M M M M M M M l e >.[ R R R R R R R R R R R R R R R R R ",
"X.X.X.X.X.X.X.X.X.X.X.X.X.X.X.X.X.X.X.X.X.X.X.X.X.X.X.X.X.{ j M c a c M M M M M M M M M M n B ,._ R R R R R R R R R R R R R R R ",
"X.X.X.X.X.X.X.X.X.X.X.X.X.X.X.X.X.X.X.X.X.X.X.X.X.X.X.X.X.{ j M c a c M M M M M M M M M M M M m C 9 ` Q R R R R R R R R R R R R ",
"X.X.X.X.X.X.X.X.X.X.X.X.X.X.X.X.X.X.X.X.X.X.X.X.X.X.X.X.X.{ j M c a c M M M M M M M M M M M M M M M z t ~ Q R R R R R R R R R R ",
"X.X.X.X.X.X.X.X.X.X.X.X.X.X.X.X.X.X.X.X.X.X.X.X.X.X.X.X.X.{ j M c a c M M M M M M M M M M M M M M M M M x u / E R R R R R R R R ",
"X.X.X.X.X.X.X.X.X.X.X.X.X.X.X.X.X.X.X.X.X.X.X.X.X.X.X.X.X.{ j M c a c M M M M M M M M M M M M M M M M M M M l i / Q R R R R R R ",
"X.X.X.X.X.X.X.X.X.X.X.X.X.X.X.X.X.X.X.X.X.X.X.X.X.X.X.X.X.{ j M c a c M M M M M M M M M M M M M M M M M M l N t ~ Q R R R R R R ",
"X.X.X.X.X.X.X.X.X.X.X.X.X.X.X.X.X.X.X.X.X.X.X.X.X.X.X.X.X.{ j M c a c M M M M M M M M M M M M M M M f B 0 ( [ R R R R R R R R R ",
"X.X.X.X.X.X.X.X.X.X.X.X.X.X.X.X.X.X.X.X.X.X.X.X.X.X.X.X.X.{ j M c a c M M M M M M M M M M M M l B 9 ^ W R R R R R R R R R R R R ",
"X.X.X.X.X.X.X.X.X.X.X.X.X.X.X.X.X.X.X.X.X.X.X.X.X.X.X.X.X.{ j M c a c M M M M M M M M M x p 6 ^ W R R R R R R R R R R R R R R R ",
"X.X.X.X.X.X.X.X.X.X.X.X.X.X.X.X.X.X.X.X.X.X.X.X.X.X.X.X.X.{ j M c a c M M M M M m x r 8 ~ W R R R R R R R R R R R R R R R R R R ",
"X.X.X.X.X.X.X.X.X.X.X.X.X.X.X.X.X.X.X.X.X.X.X.X.X.X.X.X.X.{ j M c a c M M m j r 7 } W R R R R R R R R R R R R R R R R R R R R R ",
"X.X.X.X.X.X.X.X.X.X.X.X.X.X.X.X.X.X.X.X.X.X.X.X.X.X.X.X.X.{ j M c a b g i 7 ' E R R R R R R R R R R R R R R R R R R R R R R R R ",
"X.X.X.X.X.X.X.X.X.X.X.X.X.X.X.X.X.X.X.X.X.X.X.X.X.X.X.X.X.#.A v c 5 q ' E R R R R R R R R R R R R R R R R R R R R R R R R R R R ",
"X.X.X.X.X.X.X.X.X.X.X.X.X.X.X.X.X.X.X.X.X.X.X.X.X.X.X.X.X.=.e.w.q.2.! R R R R R R R R R R R R R R R R R R R R R R R R R R R R R ",
"X.X.X.X.X.X.X.X.X.X.X.X.X.X.X.X.X.X.X.X.X.X.X.X.X.X.X.X.X.-.f.k.g.8.$.R R R R R R R R R R R R R R R R R R R R R R R R R R R R R ",
"X.X.X.X.X.X.X.X.X.X.X.X.X.X.X.X.X.X.X.X.X.X.X.X.X.X.X.X.X.-.a.j.g.6.$.R R R R R R R R R R R R R R R R R R R R R R R R R R R R R ",
"X.X.X.X.X.X.X.X.X.X.X.X.X.X.X.X.X.X.X.X.X.X.X.X.X.X.X.X.X.-.a.j.g.6.$.R R R R R R R R R R R R R R R R R R R R R R R R R R R R R ",
"X.X.X.X.X.X.X.X.X.X.X.X.X.X.X.X.X.X.X.X.X.X.X.X.X.X.X.X.X.-.a.j.g.6.$.R R R R R R R R R R R R R R R R R R R R R R R R R R R R R ",
"X.X.X.X.X.X.X.X.X.X.X.X.X.X.X.X.X.X.X.X.X.X.X.X.X.X.X.X.X.-.a.j.g.6.$.R R R R R R R R R R R R R R R R R R R R R R R R R R R R R ",
"X.X.X.X.X.X.X.X.X.X.X.X.X.X.X.X.X.X.X.X.X.X.X.X.X.X.X.X.X.-.a.j.g.6.$.R R R R R R R R R R R R R R R R R R R R R R R R R R R R R ",
"X.X.X.X.X.X.X.X.X.X.X.X.X.X.X.X.X.X.X.X.X.X.X.X.X.X.X.X.X.-.a.j.g.6.$.R R R R R R R R R R R R R R R R R R R R R R R R R R R R R ",
"X.X.X.X.X.X.X.X.X.X.X.X.X.X.X.X.X.X.X.X.X.X.X.X.X.X.X.X.X.-.a.j.g.6.$.R R R R R R R R R R R R R R R R R R R R R R R R R R R R R ",
"X.X.X.X.X.X.X.X.X.X.X.X.X.X.X.X.X.X.X.X.X.X.X.X.X.X.X.X.X.-.a.j.g.6.$.R R R R R R R R R R R R R R R R R R R R R R R R R R R R R ",
"R R R R R R R R R R R R R R R R R R R R R R R R R R R R R &.d.j.g.7.@.X.X.X.X.X.X.X.X.X.X.X.X.X.X.X.X.X.X.X.X.X.X.X.X.X.X.X.X.X.",
"R R R R R R R R R R R R R R R R R R R R R R R R R R R R R &.d.j.g.7.@.X.X.X.X.X.X.X.X.X.X.X.X.X.X.X.X.X.X.X.X.X.X.X.X.X.X.X.X.X.",
"R R R R R R R R R R R R R R R R R R R R R R R R R R R R R &.d.j.g.7.@.X.X.X.X.X.X.X.X.X.X.X.X.X.X.X.X.X.X.X.X.X.X.X.X.X.X.X.X.X.",
"R R R R R R R R R R R R R R R R R R R R R R R R R R R R R &.d.j.g.7.@.X.X.X.X.X.X.X.X.X.X.X.X.X.X.X.X.X.X.X.X.X.X.X.X.X.X.X.X.X.",
"R R R R R R R R R R R R R R R R R R R R R R R R R R R R R &.d.j.g.7.@.X.X.X.X.X.X.X.X.X.X.X.X.X.X.X.X.X.X.X.X.X.X.X.X.X.X.X.X.X.",
"R R R R R R R R R R R R R R R R R R R R R R R R R R R R R &.d.j.g.7.@.X.X.X.X.X.X.X.X.X.X.X.X.X.X.X.X.X.X.X.X.X.X.X.X.X.X.X.X.X.",
"R R R R R R R R R R R R R R R R R R R R R R R R R R R R R &.d.j.g.7.@.X.X.X.X.X.X.X.X.X.X.X.X.X.X.X.X.X.X.X.X.X.X.X.X.X.X.X.X.X.",
"R R R R R R R R R R R R R R R R R R R R R R R R R R R R R &.d.j.g.7.@.X.X.X.X.X.X.X.X.X.X.X.X.X.X.X.X.X.X.X.X.X.X.X.X.X.X.X.X.X.",
"R R R R R R R R R R R R R R R R R R R R R R R R R R R R R &.d.j.g.7.@.X.X.X.X.X.X.X.X.X.X.X.X.X.X.X.X.X.X.X.X.X.X.X.X.X.X.X.X.X.",
"R R R R R R R R R R R R R R R R R R R R R R R R R R R R R &.d.j.g.7.@.X.X.X.X.X.X.X.X.X.X.X.X.X.X.X.X.X.X.X.X.X.X.X.X.X.X.X.X.X.",
"R R R R R R R R R R R R R R R R R R R R R R R R R R R R R &.d.j.g.7.@.X.X.X.X.X.X.X.X.X.X.X.X.X.X.X.X.X.X.X.X.X.X.X.X.X.X.X.X.X.",
"R R R R R R R R R R R R R R R R R R R R R R R R R R R R R &.d.j.g.7.@.X.X.X.X.X.X.X.X.X.X.X.X.X.X.X.X.X.X.X.X.X.X.X.X.X.X.X.X.X.",
"R R R R R R R R R R R R R R R R R R R R R R R R R R R R R &.d.j.g.7.O.X.X.X.X.X.X.X.X.X.X.X.X.X.X.X.X.X.X.X.X.X.X.X.X.X.X.X.X.X.",
"R R R R R R R R R R R R R R R R R R R R R R R R R R R R T | s.j.g.6.] ..X.X.X.X.X.X.X.X.X.X.X.X.X.X.X.X.X.X.X.X.X.X.X.X.X.X.X.X.",
"R R R R R R R R R R R R R R R R R R R R R R R R R R R P : 4 p.j.g.5.< - G X.X.X.X.X.X.X.X.X.X.X.X.X.X.X.X.X.X.X.X.X.X.X.X.X.X.X.",
"R R R R R R R R R R R R R R R R R R R R R R R R R R I .   3 p.j.g.5., @ % H X.X.X.X.X.X.X.X.X.X.X.X.X.X.X.X.X.X.X.X.X.X.X.X.X.X.",
"R R R R R R R R R R R R R R R R R R R R R R R R R R K     O 3.u.y.1.= @ @ F X.X.X.X.X.X.X.X.X.X.X.X.X.X.X.X.X.X.X.X.X.X.X.X.X.X.",
"R R R R R R R R R R R R R R R R R R R R R R R R R R U :     X 2 > $ @ # ; J X.X.X.X.X.X.X.X.X.X.X.X.X.X.X.X.X.X.X.X.X.X.X.X.X.X.",
"R R R R R R R R R R R R R R R R R R R R R R R R R R R T L 1 + o & * D G ..X.X.X.X.X.X.X.X.X.X.X.X.X.X.X.X.X.X.X.X.X.X.X.X.X.X.X.",
"R R R R R R R R R R R R R R R R R R R R R R R R R R R R R T T Y J ..X.X.X.X.X.X.X.X.X.X.X.X.X.X.X.X.X.X.X.X.X.X.X.X.X.X.X.X.X.X.",
"R R R R R R R R R R R R R R R R R R R R R R R R R R R R R R R R X.X.X.X.X.X.X.X.X.X.X.X.X.X.X.X.X.X.X.X.X.X.X.X.X.X.X.X.X.X.X.X.",
"R R R R R R R R R R R R R R R R R R R R R R R R R R R R R R R R X.X.X.X.X.X.X.X.X.X.X.X.X.X.X.X.X.X.X.X.X.X.X.X.X.X.X.X.X.X.X.X.",
"R R R R R R R R R R R R R R R R R R R R R R R R R R R R R R R R X.X.X.X.X.X.X.X.X.X.X.X.X.X.X.X.X.X.X.X.X.X.X.X.X.X.X.X.X.X.X.X.",
"R R R R R R R R R R R R R R R R R R R R R R R R R R R R R R R R X.X.X.X.X.X.X.X.X.X.X.X.X.X.X.X.X.X.X.X.X.X.X.X.X.X.X.X.X.X.X.X.",
"R R R R R R R R R R R R R R R R R R R R R R R R R R R R R R R R X.X.X.X.X.X.X.X.X.X.X.X.X.X.X.X.X.X.X.X.X.X.X.X.X.X.X.X.X.X.X.X.",
"R R R R R R R R R R R R R R R R R R R R R R R R R R R R R R R R X.X.X.X.X.X.X.X.X.X.X.X.X.X.X.X.X.X.X.X.X.X.X.X.X.X.X.X.X.X.X.X.",
"R R R R R R R R R R R R R R R R R R R R R R R R R R R R R R R R X.X.X.X.X.X.X.X.X.X.X.X.X.X.X.X.X.X.X.X.X.X.X.X.X.X.X.X.X.X.X.X.",
"R R R R R R R R R R R R R R R R R R R R R R R R R R R R R R R R X.X.X.X.X.X.X.X.X.X.X.X.X.X.X.X.X.X.X.X.X.X.X.X.X.X.X.X.X.X.X.X.",
"R R R R R R R R R R R R R R R R R R R R R R R R R R R R R R R R X.X.X.X.X.X.X.X.X.X.X.X.X.X.X.X.X.X.X.X.X.X.X.X.X.X.X.X.X.X.X.X.",
"R R R R R R R R R R R R R R R R R R R R R R R R R R R R R R R R X.X.X.X.X.X.X.X.X.X.X.X.X.X.X.X.X.X.X.X.X.X.X.X.X.X.X.X.X.X.X.X.",
"R R R R R R R R R R R R R R R R R R R R R R R R R R R R R R R R X.X.X.X.X.X.X.X.X.X.X.X.X.X.X.X.X.X.X.X.X.X.X.X.X.X.X.X.X.X.X.X.",
"R R R R R R R R R R R R R R R R R R R R R R R R R R R R R R R R X.X.X.X.X.X.X.X.X.X.X.X.X.X.X.X.X.X.X.X.X.X.X.X.X.X.X.X.X.X.X.X."
};
