/* XPM */
static char *_27ab2fe097c420b8767c3ad118d72e1xVpcKmcLKzLJs6jo[] = {
/* columns rows colors chars-per-pixel */
"64 64 134 2 ",
"   c #020100",
".  c #1D1905",
"X  c #332B09",
"o  c #3A320A",
"O  c #396633",
"+  c #3B6A35",
"@  c #3F7138",
"#  c #615311",
"$  c #756314",
"%  c #786515",
"&  c #7A6815",
"*  c #416C2B",
"=  c #45742E",
"-  c #4B712A",
";  c #58752F",
":  c #5F7B2A",
">  c #446B31",
",  c #477830",
"<  c #497B31",
"1  c #40743A",
"2  c #467E3F",
"3  c #657B2B",
"4  c #617E31",
"5  c #8A7518",
"6  c #E47D24",
"7  c #E87C23",
"8  c #4D8133",
"9  c #508736",
"0  c #528A37",
"q  c #57913A",
"w  c #59953B",
"e  c #5E9D3E",
"r  c #748227",
"t  c #7A8527",
"y  c #75812C",
"u  c #7C8A2F",
"i  c #7D9E3C",
"p  c #6AA53F",
"a  c #72A33E",
"s  c #72A93F",
"d  c #7BAC3E",
"f  c #488241",
"g  c #4D8B45",
"h  c #53964A",
"j  c #579D4E",
"k  c #5B9E4C",
"l  c #6D9F45",
"z  c #629E49",
"x  c #749E42",
"c  c #63A642",
"v  c #6AA542",
"b  c #6DA840",
"n  c #64A14B",
"m  c #6BA349",
"M  c #75A445",
"N  c #7AA745",
"B  c #70A940",
"V  c #71A548",
"C  c #A78D1D",
"Z  c #8D8C26",
"A  c #848E2D",
"S  c #9E9225",
"D  c #9F9E28",
"F  c #889D3A",
"G  c #959737",
"H  c #9C9435",
"J  c #929F35",
"K  c #9A9F31",
"L  c #BD8A2D",
"P  c #A39523",
"I  c #A69826",
"U  c #AE9A21",
"Y  c #B69D22",
"T  c #B89B20",
"R  c #BD9229",
"E  c #A69133",
"W  c #9EA02F",
"Q  c #82A637",
"!  c #83AE3C",
"~  c #89AF3B",
"^  c #91A236",
"/  c #8FB13A",
"(  c #92B239",
")  c #9BB13C",
"_  c #AFA127",
"`  c #ABA129",
"'  c #B1A226",
"]  c #BDA121",
"[  c #B0AA2F",
"{  c #A3B636",
"}  c #ABB835",
"|  c #A4B33B",
" . c #ACB639",
".. c #BAB533",
"X. c #B0B934",
"o. c #BBBB34",
"O. c #CF8428",
"+. c #C1892C",
"@. c #DC8522",
"#. c #D98C22",
"$. c #C39B21",
"%. c #E18123",
"&. c #E89324",
"*. c #C2A422",
"=. c #C6AA24",
"-. c #CBAC24",
";. c #D1AA24",
":. c #C4B52E",
">. c #D3B225",
",. c #D8B726",
"<. c #DBBA27",
"1. c #D5BC2B",
"2. c #DCBD28",
"3. c #C5BE31",
"4. c #CBBE31",
"5. c #EAA226",
"6. c #E6A826",
"7. c #EAAC27",
"8. c #E1B627",
"9. c #E1BF28",
"0. c #CDC12F",
"q. c #D3C22E",
"w. c #DAC32E",
"e. c #D3C130",
"r. c #E4C229",
"t. c #E1C52C",
"y. c #ECC229",
"u. c #E8C72B",
"i. c #EBC72B",
"p. c #EBC82A",
"a. c #ECC82A",
"s. c #85AA43",
"d. c #88AB42",
"f. c #91AE40",
/* pixels */
"c c c c c c c c c c c c c c c c c c c c c c c c c c c c c c c c j j j j j j j j j j j j j j j j j j j j j j j j j j j j j j j j ",
"c c c c c c c c c c c c c c c c c c c c c c c c c c c c c c c c j j j j j j j j j j j j j j j j j j j j j j j j j j j j j j j j ",
"c c c c c c c c c c c c c c c c c c c c c c c c c c c c c c c c j j j j j j j j j j j j j j j j j j j j j j j j j j j j j j j j ",
"c c c c c c c c c c c c c c c c c c c c c c c c c c c c c c c c j j j j j j j j j j j j j j j j j j j j j j j j j j j j j j j j ",
"c c c c c c c c c c c c c c c c c c c c c c c c c c c c c c c c j j j j j j j j j j j j j j j j j j j j j j j j j j j j j j j j ",
"c c c c c c c c c c c c c c c c c c c c c c c c c c c c c c c c j j j j j j j j j j j j j j j j j j j j j j j j j j j j j j j j ",
"c c c c c c c c c c c c c c c c c c c c c c c c c c c c c c c c j j j j j j j j j j j j j j j j j j j j j j j j j j j j j j j j ",
"c c c c c c c c c c c c c c c c c c c c c c c c c c c c c c c c j j j j j j j j j j j j j j j j j j j j j j j j j j j j j j j j ",
"c c c c c c c c c c c c c c c c c c c c c c c c c c c c c c c c j j j j j j j j j j j j j j j j j j j j j j j j j j j j j j j j ",
"c c c c c c c c c c c c c c c c c c c c c c c c c c c c c c c b j j j j j j j j j j j j j j j j j j j j j j j j j j j j j j j j ",
"c c c c c c c c c c c c c c c c c c c c c c c c c c c c c c b o.m j j j j j j j j j j j j j j j j j j j j j j j j j j j j j j j ",
"c c c c c c c c c c c c c c c c c c c c c c c c c c c c b c b 3.N j j k k j j j j j j j j j j j j j j j j j j j j j j j j j j j ",
"c c c c c c c c c c c c c c c c c c c c c c c c c c c b o.( b o.s.j M o.d.j j j j j j j j j j j j j j j j j j j j j j j j j j j ",
"c c c c c c c c c c c c c c c c c c c c c c c c c c c c / 0./ o.s.N 3.| n j j j j j j j j j j j j j j j j j j j j j j j j j j j ",
"c c c c c c c c c c c c c c c c c c c c c c c c c c c c c ) 4.3.) 3.) j j j j j j j j j j j j j j j j j j j j j j j j j j j j j ",
"c c c c c c c c c c c c c c c c c c c c c c c c c c c c c b 3.w.e.| j j j j j j j j j j j j j j j j j j j j j j j j j j j j j j ",
"c c c c c c c c c c c c c c c c c c c c c c c c c c c b ! ( 3.a.t.) M n j j j j j j j j j j j j j j j j j j j j j j j j j j j j ",
"c c c c c c c c c c c c c c c c c c c c c c c c c d { 4.t.i.i.a.i.i.t.4.) m j j j j j j j j j j j j j j j j j j j j j j j j j j ",
"c c c c c c c c c c c c c c c c c c c c c c c b { w.p.a.a.a.a.a.a.a.a.a.p.e.) n j j j j j j j j j j j j j j j j j j j j j j j j ",
"c c c c c c c c c c c c c c c c c c c c c c d 3.i.a.a.a.a.a.a.a.a.a.a.a.a.a.i.o.m j j j j j j j j j j j j j j j j j j j j j j j ",
"c c c c c c c c c c c c c c c c c c c c c ! q.a.a.a.a.a.a.a.a.a.a.a.a.a.a.a.a.a.4.M j j j j j j j j j j j j j j j j j j j j j j ",
"c c c c c c c c c c c c c c c c c c c c d q.a.a.a.a.a.a.a.a.a.a.a.a.a.a.a.a.a.a.i.:.l j j j j j j j j j j j j j j j j j j j j j ",
"c c c c c c c c c c c c c c c c c c c B 3.a.a.a.a.a.a.a.a.a.a.a.a.a.a.a.a.a.a.a.a.i.[ z j j j j j j j j j j j j j j j j j j j j ",
"c c c c c c c c c c c c c c c c c c c } i.a.a.a.a.a.a.a.a.a.a.a.a.a.a.a.a.a.a.a.a.a.<.^ j j j j j j j j j j j j j j j j j j j j ",
"c c c c c c c c c c c c c c c c c c ~ t.a.a.a.a.a.a.a.a.a.a.a.a.a.a.a.a.a.a.a.a.a.a.i.=.x j j j j j j j j j j j j j j j j j j j ",
"c c c c c c c c c c c c c c c c c v o.a.a.a.a.a.a.a.a.a.a.a.a.a.a.a.a.a.a.a.a.a.a.a.a.,.W j j j j j j j j j j j j j j j j j j j ",
"c c c c c c c c c c c c c c c c c ! t.a.a.a.a.a.a.a.a.a.a.a.a.a.a.a.a.a.a.a.a.a.a.a.a.r.] x j j j j j j j j j j j j j j j j j j ",
"c c c c c c c c c c c c c c c c c X.a.a.a.a.a.a.a.a.a.a.a.a.a.a.a.a.a.a.a.a.a.a.a.a.a.i.=.J j j j j j j j j j j j j j j j j j j ",
"c c c c c c c c c c c c c c c c s q.a.a.a.a.a.a.a.a.a.a.a.a.a.a.a.a.a.a.a.a.a.a.a.a.a.a.>.` z j j j j j j j j j j j j j j j j j ",
"c c c c c c c c c c c c c c c c ~ i.a.a.a.a.a.a.a.a.a.a.a.a.a.a.a.a.a.a.a.a.a.a.a.a.a.a.<.] x j j j j j j j j j j j j j j j j j ",
"c c c c c c c c c c c c c c c c { a.a.a.a.a.a.a.a.a.a.a.a.a.a.a.a.a.a.a.a.a.a.a.a.a.a.a.9.*.F j j j j j j j j j j j j j j j j j ",
"c c c c c c c c c c c c c c c c o.a.a.a.a.a.a.a.a.a.a.a.a.a.a.a.a.a.a.a.a.a.a.a.a.r.,.<.r.*.K j j j j j j j j j j j j j j j j j ",
"j j j j j j j j j j j j j j j n 3.a.a.a.a.a.a.a.a.a.a.a.a.a.a.a.a.a.a.a.a.a.a.a.r.% . o T =.` v c c c c c c c c c c c c c c c c ",
"j j j j j j j j j j j j j j j n e.a.a.a.a.a.a.a.a.a.a.a.a.a.a.a.a.a.a.a.a.a.a.a.>..     $ =._ p c c c c c c c c c c c c c c c c ",
"j j j j j j j j j j j j j j j n w.a.a.a.a.a.a.a.a.a.a.a.a.a.a.a.a.a.a.a.a.a.a.a.<.X     5 =.' p c c c c c c c c c c c c c c c c ",
"j j j j j j j j j j j j j j j n w.a.a.a.a.a.a.a.a.a.a.a.a.a.a.a.a.a.a.a.a.a.a.a.i.C # & -.*.Y a c c c c c c c c c c c c c c c c ",
"j j j j j j j j j j j j j j j n w.a.a.a.a.a.a.a.a.a.a.a.a.a.a.a.a.a.a.a.a.a.a.a.a.i.<.9.8.#.%.+.i c c c c c c c c c c c c c c c ",
"j j j j j j j j j j j j j j j n 4.a.a.a.a.a.a.a.a.a.a.a.a.a.a.a.a.a.a.a.a.a.a.a.a.a.a.y.&.7 7 7 O.i c c c c c c c c c c c c c c ",
"j j j j j j j j j j j j j j j k o.a.a.a.a.a.a.a.a.a.a.a.a.a.a.a.a.a.a.a.a.a.a.a.a.a.a.7.7 7 7 7 7 L v c c c c c c c c c c c c c ",
"j j j j j j j j j j j j j j j j  .a.a.a.a.a.a.a.a.a.a.i.a.a.a.a.a.i.r.a.a.a.a.a.a.a.a.5.7 7 7 7 7 6 H c c c c c c c c c c c c c ",
"j j j j j j j j j j j j j j j j f.i.a.a.a.a.a.a.a.a.a.i.i.a.a.a.a.r.<.a.a.a.a.a.a.a.a.6.7 7 7 7 7 7 L v c c c c c c c c c c c c ",
"j j j j j j j j j j j j j j j j V w.a.a.a.a.a.a.a.a.a.r.r.a.a.a.a.,.,.a.a.a.a.a.a.a.i.;.@.7 7 7 6 O.G c c c c c c c c c c c c c ",
"j j j j j j j j j j j j j j j j k o.a.a.a.a.a.a.a.a.a.i.<.r.a.a.r.=.9.a.a.a.a.a.a.a.<.*.$.R E H F a c c c c c c c c c c c c c c ",
"j j j j j j j j j j j j j j j j j d.i.a.a.a.a.a.a.a.a.a.r.>.,.,.=.-.i.a.a.a.a.a.a.r.=.] ] Q c c c c c c c c c c c c c c c c c c ",
"j j j j j j j j j j j j j j j j j k ..a.a.a.a.a.a.a.a.a.a.r.-.=.-.r.a.a.a.a.a.a.i.-.] ] D p c c c c c c c c c c c c c c c c c c ",
"j j j j j j j j j j j j j j j j h 2 4 1.a.a.a.a.a.a.a.a.a.a.i.i.i.a.a.a.a.a.a.i.>.] ] U : 9 c c c c c c c c c c c c c c c c c c ",
"j j j j j j j j j j j j j j j j f O O u r.a.a.a.a.a.a.a.a.a.a.a.a.a.a.a.a.a.i.>.] ] Y r * * 0 c c c c c c c c c c c c c c c c c ",
"j j j j j j j j j j j j j j j h @ O O O A 2.a.a.a.a.a.a.a.a.a.a.a.a.a.a.a.9.-.] ] Y t * * * = c c c c c c c c c c c c c c c c c ",
"j j j j j j j j j j j j j j j h @ O O O + y =.9.i.a.a.a.a.a.a.a.a.a.i.9.>.*.] ] Y r * * * * = c c c c c c c c c c c c c c c c c ",
"j j j j j j j j j j j j j j j j f O O O O O 3 I =.>.<.9.r.r.r.9.<.>.=.*.] ] ] P 3 * * * * * 0 c c c c c c c c c c c c c c c c c ",
"j j j j j j j j j j j j j j j j h 2 + O O O O > y P Y ] *.*.*.*.] ] ] ] Y P t - * * * * * 9 c c c c c c c c c c c c c c c c c c ",
"j j j j j j j j j j j j j j j j j h g 1 + O O O O > ; y Z S P P P P Z t : - * * * * * < w c c c c c c c c c c c c c c c c c c c ",
"j j j j j j j j j j j j j j j j j j j h g 2 @ + + O O O O > > > - - * * * * * = , 9 w c c c c c c c c c c c c c c c c c c c c c ",
"j j j j j j j j j j j j j j j j j j j j j j h h g f 2 1 @ + + + = = , < 8 0 q e c c c c c c c c c c c c c c c c c c c c c c c c ",
"j j j j j j j j j j j j j j j j j j j j j j j j j j j h h h h h e c c c c c c c c c c c c c c c c c c c c c c c c c c c c c c c ",
"j j j j j j j j j j j j j j j j j j j j j j j j j j j j j j j j c c c c c c c c c c c c c c c c c c c c c c c c c c c c c c c c ",
"j j j j j j j j j j j j j j j j j j j j j j j j j j j j j j j j c c c c c c c c c c c c c c c c c c c c c c c c c c c c c c c c ",
"j j j j j j j j j j j j j j j j j j j j j j j j j j j j j j j j c c c c c c c c c c c c c c c c c c c c c c c c c c c c c c c c ",
"j j j j j j j j j j j j j j j j j j j j j j j j j j j j j j j j c c c c c c c c c c c c c c c c c c c c c c c c c c c c c c c c ",
"j j j j j j j j j j j j j j j j j j j j j j j j j j j j j j j j c c c c c c c c c c c c c c c c c c c c c c c c c c c c c c c c ",
"j j j j j j j j j j j j j j j j j j j j j j j j j j j j j j j j c c c c c c c c c c c c c c c c c c c c c c c c c c c c c c c c ",
"j j j j j j j j j j j j j j j j j j j j j j j j j j j j j j j j c c c c c c c c c c c c c c c c c c c c c c c c c c c c c c c c ",
"j j j j j j j j j j j j j j j j j j j j j j j j j j j j j j j j c c c c c c c c c c c c c c c c c c c c c c c c c c c c c c c c ",
"j j j j j j j j j j j j j j j j j j j j j j j j j j j j j j j j c c c c c c c c c c c c c c c c c c c c c c c c c c c c c c c c "
};
