/* XPM */
static char *result[] = {
/* columns rows colors chars-per-pixel */
"64 64 2 1 ",
"  c #579D4E",
". c #63A642",
/* pixels */
"................................                                ",
"................................                                ",
"................................                                ",
"................................                                ",
"................................                                ",
"................................                                ",
"................................                                ",
"................................                                ",
"................................                                ",
"................................                                ",
"................................                                ",
"................................                                ",
"................................                                ",
"................................                                ",
"................................                                ",
"................................                                ",
"................................                                ",
"................................                                ",
"................................                                ",
"................................                                ",
"................................                                ",
"................................                                ",
"................................                                ",
"................................                                ",
"................................                                ",
"................................                                ",
"................................                                ",
"................................                                ",
"................................                                ",
"................................                                ",
"................................                                ",
"................................                                ",
"                                ................................",
"                                ................................",
"                                ................................",
"                                ................................",
"                                ................................",
"                                ................................",
"                                ................................",
"                                ................................",
"                                ................................",
"                                ................................",
"                                ................................",
"                                ................................",
"                                ................................",
"                                ................................",
"                                ................................",
"                                ................................",
"                                ................................",
"                                ................................",
"                                ................................",
"                                ................................",
"                                ................................",
"                                ................................",
"                                ................................",
"                                ................................",
"                                ................................",
"                                ................................",
"                                ................................",
"                                ................................",
"                                ................................",
"                                ................................",
"                                ................................",
"                                ................................"
};
