/* XPM */
static char *_477d1b5f9ae45d0a0c82a6903678493BjRZUZQlavY34UJ6[] = {
/* columns rows colors chars-per-pixel */
"64 64 141 2 ",
"   c #156417",
".  c #166518",
"X  c #1A651A",
"o  c #176A1A",
"O  c #1A6B1B",
"+  c #16721A",
"@  c #1A741C",
"#  c #1C7D1F",
"$  c #24641E",
"%  c #226E1E",
"&  c #2D5D21",
"*  c #3A5624",
"=  c #305D23",
"-  c #3E5826",
";  c #3D5728",
":  c #1E7421",
">  c #1E7D20",
",  c #226420",
"<  c #246E24",
"1  c #276E28",
"2  c #2C6E2C",
"3  c #237222",
"4  c #227D24",
"5  c #277F29",
"6  c #2B7D2B",
"7  c #3C742B",
"8  c #337D2C",
"9  c #396633",
"0  c #3B6B35",
"q  c #387237",
"w  c #357C34",
"e  c #3D733A",
"r  c #3C7C3B",
"t  c #504D2B",
"y  c #594E2E",
"u  c #56552F",
"i  c #5C4B31",
"p  c #435E32",
"a  c #485A32",
"s  c #525232",
"d  c #634632",
"f  c #604932",
"g  c #4B612E",
"h  c #416C2B",
"j  c #45732E",
"k  c #406133",
"l  c #4E6034",
"z  c #4A7C31",
"x  c #41753A",
"c  c #437A3C",
"v  c #457342",
"b  c #487545",
"n  c #417E40",
"m  c #4F764C",
"M  c #597B54",
"N  c #5D7B58",
"B  c #617C5C",
"V  c #677B61",
"C  c #6B7D65",
"Z  c #717D6A",
"A  c #258225",
"S  c #2A8526",
"D  c #278229",
"F  c #2C862A",
"G  c #358029",
"H  c #3C852D",
"J  c #348B2C",
"K  c #3C902E",
"L  c #328031",
"P  c #328830",
"I  c #398D35",
"U  c #3D833B",
"Y  c #3E9030",
"T  c #3E903A",
"R  c #4D8234",
"E  c #478F33",
"W  c #4E8A34",
"Q  c #428B3D",
"!  c #528936",
"~  c #459533",
"^  c #4C9435",
"/  c #4C9937",
"(  c #43923E",
")  c #569139",
"_  c #549C3A",
"`  c #5C9D3E",
"'  c #5BA13E",
"]  c #428341",
"[  c #498441",
"{  c #478E41",
"}  c #4D8B45",
"|  c #4B8349",
" . c #52834F",
".. c #479141",
"X. c #4B9444",
"o. c #4F9948",
"O. c #53964A",
"+. c #579D4E",
"@. c #548551",
"#. c #598655",
"$. c #5C8758",
"%. c #62855D",
"&. c #63885F",
"*. c #5FA441",
"=. c #63A642",
"-. c #678762",
";. c #6D8167",
":. c #678862",
">. c #6B8965",
",. c #6F8969",
"<. c #748A6D",
"1. c #788170",
"2. c #778B70",
"3. c #7A8B73",
"4. c #818B79",
"5. c #8C8B83",
"6. c #97888C",
"7. c #988F8D",
"8. c #9B8990",
"9. c #AC8E9F",
"0. c #A49198",
"q. c #AC929F",
"w. c #B28FA4",
"e. c #AD93A0",
"r. c #B193A4",
"t. c #B792A9",
"y. c #B892AA",
"u. c #B994AB",
"i. c #BB92AD",
"p. c #BC93AD",
"a. c #BA95AC",
"s. c #BD95AE",
"d. c #C095B1",
"f. c #C396B4",
"g. c #C797B7",
"h. c #C897B8",
"j. c #CD97BD",
"k. c #CF98BE",
"l. c #D098BF",
"z. c #D398C2",
"x. c #D499C3",
/* pixels */
"=.=.=.=.=.=.=.=.=.=.=.=.=.=.=.=.=.=.=.=.=.=.=.=.=.=.=.=.=.=.=.=.+.+.+.+.+.+.+.+.+.+.+.+.+.+.+.+.+.+.+.+.+.+.+.+.+.+.+.+.+.+.+.+.",
"=.=.=.=.=.=.=.=.=.=.=.=.=.=.=.=.=.=.=.=.=.=.=.=.=.=.=.=.=.=.=.=.+.+.+.+.+.+.+.+.+.+.+.+.+.+.+.+.+.+.+.+.+.+.+.+.+.+.+.+.+.+.+.+.",
"=.=.=.=.=.=.=.=.=.=.=.=.=.=.=.=.=.=.=.=.=.=.=.=.=.=.=.=.=.=.=.=.+.+.+.+.+.+.+.+.+.+.+.+.+.+.+.+.+.+.+.+.+.+.+.+.+.+.+.+.+.+.+.+.",
"=.=.=.=.=.=.=.=.=.=.=.=.=.=.=.=.=.=.=.=.=.=.=.=.=.=.=.=.=.=.=.=.+.+.+.+.+.+.+.+.+.+.+.+.+.+.+.+.+.+.+.+.+.+.+.+.+.+.+.+.+.+.+.+.",
"=.=.=.=.=.=.=.=.=.=.=.=.=.=.=.=.=.=.=.=.=.=.=.=.=.=.=.=.=.=.=.=.+.+.+.+.+.+.+.+.+.+.+.+.+.+.+.+.+.+.+.+.+.+.+.+.+.+.+.+.+.+.+.+.",
"=.=.=.=.=.=.=.=.=.=.=.=.=.=.=.=.=.=.=.=.=.=.=.=.=.=.=.=.=.=.=.=.+.+.+.+.+.+.+.+.+.+.+.+.+.+.+.+.+.+.+.+.+.+.+.+.+.+.+.+.+.+.+.+.",
"=.=.=.=.=.=.=.=.=.=.=.=.=.=.=.=.=.=.=.=.=.=.=.=.=.=.=.=.=.=.=.=.+.+.+.+.+.+.+.+.+.+.+.+.+.+.+.+.+.+.+.+.+.+.+.+.+.+.+.+.+.+.+.+.",
"=.=.=.=.=.=.=.=.=.=.=.=.=.=.=.=.=.=.=.=.=.=.=.=.=.=.=.=.=.=.=.=.+.+.+.+.+.+.+.+.+.+.+.+.+.+.+.+.+.+.+.+.+.+.+.+.+.+.+.+.+.+.+.+.",
"=.=.=.=.=.=.=.=.=.=.=.=.=.=.=.=.=.=.=.=.=.=.=.=.=.=.=.=.=.=.=.=.+.+.+.+.+.+.+.+.+.+.+.+.+.+.+.+.+.+.+.+.+.+.+.+.+.+.+.+.+.+.+.+.",
"=.=.=.=.=.=.=.=.=.=.=.=.=.=.=.=.=.=.=.=.=.=.=.=.=.=.=.=.=.=.=.=.+.+.+.+.+.+.+.+.+.+.+.+.+.+.+.+.+.+.+.+.+.+.+.+.+.+.+.+.+.+.+.+.",
"=.=.=.=.=.=.=.=.=.=.=.=.=.=.=.=.=.=.=.=.=.=.=.=.=.=.=.=.=.=.=.=.+.+.+.+.+.+.+.+.+.+.+.+.+.+.+.+.+.+.+.+.+.+.+.+.+.+.+.+.+.+.+.+.",
"=.=.=.=.=.=.=.=.=.=.=.=.=.=.=.=.=.=.=.=.=.=.=.=.=.=.=.=.=.=.=.=.+.+.+.+.+.+.+.+.+.+.+.+.+.+.+.+.+.+.+.+.+.+.+.+.+.+.+.+.+.+.+.+.",
"=.=.=.=.=.=.=.=.=.=.=.=.=.=.=.=.=.=.=.=.=.=.=.=.=.=.=.=.=.=.=.=.+.+.+.+.+.+.+.+.+.+.+.+.+.+.+.+.+.+.+.+.+.+.+.+.+.+.+.+.+.+.+.+.",
"=.=.=.=.=.=.=.=.=.=.=.=.=.=.=.=.=.=.=.=.=.=.=.=.=.=.=.=.=.=.=.=.+.+.+.+.+.+.+.+.+.+.+.+.+.+.+.+.+.+.+.+.+.+.+.+.+.+.+.+.+.+.+.+.",
"=.=.=.=.=.=.=.=.=.=.=.=.=.=.=.=.=.=.=.=.=.=.=.=.=.=.=.=.=.=.=.=.+.+.+.+.+.+.+.+.+.+.+.+.+.+.+.+.+.+.+.+.+.+.+.+.+.+.+.+.+.+.+.+.",
"=.=.=.=.=.=.=.=.=.=.=.=.=.=.=.=.=.=.=.=.=.=.=.=.=.=.=.=.=.=.' ' O.O.+.+.+.+.+.+.+.+.+.+.+.+.+.+.+.+.+.+.+.+.+.+.+.+.+.+.+.+.+.+.",
"=.=.=.=.=.=.=.=.=.=.=.=.=.=.=.=.=.=.=.=.=.=.=.=.=.=.' / Y J S A A D F I ( O.+.+.+.+.+.+.+.+.+.+.+.+.+.+.+.+.+.+.+.+.+.+.+.+.+.+.",
"=.=.=.=.=.=.=.=.=.=.=.=.=.=.=.=.=.=.=.=.=.=.=.=.' ~ S > # # # # # # # # > D T O.+.+.+.+.+.+.+.+.+.+.+.+.+.+.+.+.+.+.+.+.+.+.+.+.",
"=.=.=.=.=.=.=.=.=.=.=.=.=.=.=.=.=.=.=.=.=.=.*.^ S > # # # # # # # # # # # # > F ( +.+.+.+.+.+.+.+.+.+.+.+.+.+.+.+.+.+.+.+.+.+.+.",
"=.=.=.=.=.=.=.=.=.=.=.=.=.=.=.=.=.=.=.=.=.' J > # # # # # # # 4 @.<.<.| 4 # # # > P X.+.+.+.+.+.+.+.+.+.+.+.+.+.+.+.+.+.+.+.+.+.",
"=.=.=.=.=.=.=.=.=.=.=.=.=.=.=.=.=.=.=.=._ F # # # # # # # # 4 3.g.z.z.g.<.4 # # # # D X.+.+.+.+.+.+.+.+.+.+.+.+.+.+.+.+.+.+.+.+.",
"=.=.=.=.=.=.=.=.=.=.=.=.=.=.=.=.=.=.=._ S # # # # # # # # # @.g.z.l.l.z.f.| # # # # # A ..+.+.+.+.+.+.+.+.+.+.+.+.+.+.+.+.+.+.+.",
"=.=.=.=.=.=.=.=.=.=.=.=.=.=.=.=.=.=._ S # # # 4 #.<.@.4 # # <.z.l.l.l.l.z.<.# # # # # # 5 ..+.+.+.+.+.+.+.+.+.+.+.+.+.+.+.+.+.+.",
"=.=.=.=.=.=.=.=.=.=.=.=.=.=.=.=.=.' F # # # > >.h.x.g.%.# # <.z.l.l.l.l.z.<.# # # # # # # 4 ..+.+.+.+.+.+.+.+.+.+.+.+.+.+.+.+.+.",
"=.=.=.=.=.=.=.=.=.=.=.=.=.=.=.=.*.J # # # # 5 0.z.l.z.7.4 #  .g.z.l.l.z.d.| # # # # # # # # 6 O.+.+.+.+.+.+.+.+.+.+.+.+.+.+.+.+.",
"=.=.=.=.=.=.=.=.=.=.=.=.=.=.=.=.~ > # # # # 4 5.x.z.z.4.> # 4 1.g.z.z.d.C > # > U >.>.U # # @ L +.+.+.+.+.+.+.+.+.+.+.+.+.+.+.+.",
"=.=.=.=.=.=.=.=.=.=.=.=.=.=.=._ A # # # # # # r 8.p.6.w # # # : m Z Z b : # > &.s.l.l.a.$.# # O { +.+.+.+.+.+.+.+.+.+.+.+.+.+.+.",
"=.=.=.=.=.=.=.=.=.=.=.=.=.=.=.K # # # # # # # # 3 2 3 # # # # # @ + + @ # # ] s.z.l.l.z.u.U # @ 6 +.+.+.+.+.+.+.+.+.+.+.+.+.+.+.",
"=.=.=.=.=.=.=.=.=.=.=.=.=.=.' A # # # # # # # # # # # # # # # # # # # # # # >.z.l.l.l.l.k.:.# # O { +.+.+.+.+.+.+.+.+.+.+.+.+.+.",
"=.=.=.=.=.=.=.=.=.=.=.=.=.=.~ > # # 4 @.<. .4 # # # # # # # # # # # # # # # >.z.l.l.l.l.k.-.# # o w +.+.+.+.+.+.+.+.+.+.+.+.+.+.",
"=.=.=.=.=.=.=.=.=.=.=.=.=.=.J # # 4 4.h.z.g.2.4 # # # # # # > 6 L 6 # # # # n p.z.l.l.z.y.r # # o 3 O.+.+.+.+.+.+.+.+.+.+.+.+.+.",
"=.=.=.=.=.=.=.=.=.=.=.=.=.' S # # | g.z.l.z.d.] # # # # # 5 ,.r.s.e.-.4 # # # B i.l.l.y.M # # # o O ..+.+.+.+.+.+.+.+.+.+.+.+.+.",
"+.+.+.+.+.+.+.+.+.+.+.+.+.o.A # # &.j.l.l.l.h.#.# # # # > ,.j.z.z.z.h.:.# # # @ e V V q @ # # # . X ^ =.=.=.=.=.=.=.=.=.=.=.=.=.",
"+.+.+.+.+.+.+.+.+.+.+.+.+.O.A # # r p.z.z.z.t.w # # # # 6 r.z.l.l.l.z.q.6 # # # # + + # # # # @ . o _ =.=.=.=.=.=.=.=.=.=.=.=.=.",
"+.+.+.+.+.+.+.+.+.+.+.+.+.+.J # # # N w.g.w.M # # # # # L s.z.l.l.l.z.s.L # # # # # # # # # # . . 3 ' =.=.=.=.=.=.=.=.=.=.=.=.=.",
"+.+.+.+.+.+.+.+.+.+.+.+.+.+.( > # # @ 2 v 2 @ # # # # # 6 r.z.l.l.l.z.q.6 # # # # # # # # # o . . H =.=.=.=.=.=.=.=.=.=.=.=.=.=.",
"+.+.+.+.+.+.+.+.+.+.+.+.+.+.+.F # # # # # # # # # # # # > ;.j.z.z.z.h.%.# # # # # # # # # O . . 3 ` =.=.=.=.=.=.=.=.=.=.=.=.=.=.",
"+.+.+.+.+.+.+.+.+.+.+.+.+.+.+.X.5 # # # # # # # # # # # # 3 C w.p.9.B 3 # # # # # # # @ o . . O ^ =.=.=.=.=.=.=.=.=.=.=.=.=.=.=.",
"+.+.+.+.+.+.+.+.+.+.+.+.+.+.+.+...4 # # # # # # # # # # # # @ 1 2 1 @ # # # # # # # @ . . . O ^ =.=.=.=.=.=.=.=.=.=.=.=.=.=.=.=.",
"+.+.+.+.+.+.+.+.+.+.+.+.+.+.+.+.+.X.6 @ # # # # # # # # # # # # # # # # # # # # @ o . . . 3 ^ =.=.=.=.=.=.=.=.=.=.=.=.=.=.=.=.=.",
"+.+.+.+.+.+.+.+.+.+.+.+.+.+.+.+.+.+.O.U 3 O @ # # # # # # # # # # # # # # @ O . . . . O H ` =.=.=.=.=.=.=.=.=.=.=.=.=.=.=.=.=.=.",
"+.+.+.+.+.+.+.+.+.+.+.+.+.+.+.+.+.+.+.+.X.L < o o O + @ @ @ @ @ @ @ O o . . . . . % G _ =.=.=.=.=.=.=.=.=.=.=.=.=.=.=.=.=.=.=.=.",
"+.+.+.+.+.+.+.+.+.+.+.+.+.+.+.+.+.+.+.+.+.+.O.Q 8 $ X . . . . . . . .   . X % 8 E ` =.=.=.=.=.=.=.=.=.=.=.=.=.=.=.=.=.=.=.=.=.=.",
"+.+.+.+.+.+.+.+.+.+.+.+.+.+.+.+.+.+.+.+.+.+.+.O.} l t ; = * & , & = = * - 7 W ` =.=.=.=.=.=.=.=.=.=.=.=.=.=.=.=.=.=.=.=.=.=.=.=.",
"+.+.+.+.+.+.+.+.+.+.+.+.+.+.+.+.+.+.+.+.O.[ x 9 9 k i d s d s 9 y f i d u h h j z ! ` =.=.=.=.=.=.=.=.=.=.=.=.=.=.=.=.=.=.=.=.=.",
"+.+.+.+.+.+.+.+.+.+.+.+.+.+.+.+.+.+.+.[ 0 9 9 9 9 9 s d i d i 9 i d f d g h h h h h j ! ` =.=.=.=.=.=.=.=.=.=.=.=.=.=.=.=.=.=.=.",
"+.+.+.+.+.+.+.+.+.+.+.+.+.+.+.+.+.+.c 9 9 9 9 9 9 9 p d d d i p i d d i h h h h h h h h z =.=.=.=.=.=.=.=.=.=.=.=.=.=.=.=.=.=.=.",
"+.+.+.+.+.+.+.+.+.+.+.+.+.+.+.+.+.} 9 9 9 9 9 9 9 9 9 i d d d f d d d u h h h h h h h h h ) =.=.=.=.=.=.=.=.=.=.=.=.=.=.=.=.=.=.",
"+.+.+.+.+.+.+.+.+.+.+.+.+.+.+.+.+.} 9 9 9 9 9 9 9 9 9 a i i i f f f i g h h h h h h h h h ) =.=.=.=.=.=.=.=.=.=.=.=.=.=.=.=.=.=.",
"+.+.+.+.+.+.+.+.+.+.+.+.+.+.+.+.+.+.c 9 9 9 9 9 9 9 9 9 9 9 9 9 h h h h h h h h h h h h z =.=.=.=.=.=.=.=.=.=.=.=.=.=.=.=.=.=.=.",
"+.+.+.+.+.+.+.+.+.+.+.+.+.+.+.+.+.+.+.[ 0 9 9 9 9 9 9 9 9 9 9 9 h h h h h h h h h h j ! ` =.=.=.=.=.=.=.=.=.=.=.=.=.=.=.=.=.=.=.",
"+.+.+.+.+.+.+.+.+.+.+.+.+.+.+.+.+.+.+.+.O.[ x 9 9 9 9 9 9 9 9 9 h h h h h h h j z ! ` =.=.=.=.=.=.=.=.=.=.=.=.=.=.=.=.=.=.=.=.=.",
"+.+.+.+.+.+.+.+.+.+.+.+.+.+.+.+.+.+.+.+.+.+.+.O.} [ c x e 0 0 0 j j z z R ! ) ` =.=.=.=.=.=.=.=.=.=.=.=.=.=.=.=.=.=.=.=.=.=.=.=.",
"+.+.+.+.+.+.+.+.+.+.+.+.+.+.+.+.+.+.+.+.+.+.+.+.+.+.+.+.+.+.O.O.` =.=.=.=.=.=.=.=.=.=.=.=.=.=.=.=.=.=.=.=.=.=.=.=.=.=.=.=.=.=.=.",
"+.+.+.+.+.+.+.+.+.+.+.+.+.+.+.+.+.+.+.+.+.+.+.+.+.+.+.+.+.+.+.+.=.=.=.=.=.=.=.=.=.=.=.=.=.=.=.=.=.=.=.=.=.=.=.=.=.=.=.=.=.=.=.=.",
"+.+.+.+.+.+.+.+.+.+.+.+.+.+.+.+.+.+.+.+.+.+.+.+.+.+.+.+.+.+.+.+.=.=.=.=.=.=.=.=.=.=.=.=.=.=.=.=.=.=.=.=.=.=.=.=.=.=.=.=.=.=.=.=.",
"+.+.+.+.+.+.+.+.+.+.+.+.+.+.+.+.+.+.+.+.+.+.+.+.+.+.+.+.+.+.+.+.=.=.=.=.=.=.=.=.=.=.=.=.=.=.=.=.=.=.=.=.=.=.=.=.=.=.=.=.=.=.=.=.",
"+.+.+.+.+.+.+.+.+.+.+.+.+.+.+.+.+.+.+.+.+.+.+.+.+.+.+.+.+.+.+.+.=.=.=.=.=.=.=.=.=.=.=.=.=.=.=.=.=.=.=.=.=.=.=.=.=.=.=.=.=.=.=.=.",
"+.+.+.+.+.+.+.+.+.+.+.+.+.+.+.+.+.+.+.+.+.+.+.+.+.+.+.+.+.+.+.+.=.=.=.=.=.=.=.=.=.=.=.=.=.=.=.=.=.=.=.=.=.=.=.=.=.=.=.=.=.=.=.=.",
"+.+.+.+.+.+.+.+.+.+.+.+.+.+.+.+.+.+.+.+.+.+.+.+.+.+.+.+.+.+.+.+.=.=.=.=.=.=.=.=.=.=.=.=.=.=.=.=.=.=.=.=.=.=.=.=.=.=.=.=.=.=.=.=.",
"+.+.+.+.+.+.+.+.+.+.+.+.+.+.+.+.+.+.+.+.+.+.+.+.+.+.+.+.+.+.+.+.=.=.=.=.=.=.=.=.=.=.=.=.=.=.=.=.=.=.=.=.=.=.=.=.=.=.=.=.=.=.=.=.",
"+.+.+.+.+.+.+.+.+.+.+.+.+.+.+.+.+.+.+.+.+.+.+.+.+.+.+.+.+.+.+.+.=.=.=.=.=.=.=.=.=.=.=.=.=.=.=.=.=.=.=.=.=.=.=.=.=.=.=.=.=.=.=.=.",
"+.+.+.+.+.+.+.+.+.+.+.+.+.+.+.+.+.+.+.+.+.+.+.+.+.+.+.+.+.+.+.+.=.=.=.=.=.=.=.=.=.=.=.=.=.=.=.=.=.=.=.=.=.=.=.=.=.=.=.=.=.=.=.=.",
"+.+.+.+.+.+.+.+.+.+.+.+.+.+.+.+.+.+.+.+.+.+.+.+.+.+.+.+.+.+.+.+.=.=.=.=.=.=.=.=.=.=.=.=.=.=.=.=.=.=.=.=.=.=.=.=.=.=.=.=.=.=.=.=."
};
